 <svg class="illustration" width="534" height="392" viewBox="0 0 534 392" fill="none" xmlns="http://www.w3.org/2000/svg">
<circle cx="3.94737" cy="245.947" r="3.94737" fill="#A4BDBB"/>
<circle cx="3.94737" cy="261.737" r="3.94737" fill="#A4BDBB"/>
<circle cx="3.94737" cy="277.526" r="3.94737" fill="#A4BDBB"/>
<circle cx="3.94737" cy="293.316" r="3.94737" fill="#A4BDBB"/>
<circle cx="3.94737" cy="309.105" r="3.94737" fill="#A4BDBB"/>
<circle cx="3.94737" cy="324.895" r="3.94737" fill="#A4BDBB"/>
<circle cx="3.94737" cy="340.684" r="3.94737" fill="#A4BDBB"/>
<circle cx="3.94737" cy="356.474" r="3.94737" fill="#A4BDBB"/>
<circle cx="3.94737" cy="372.263" r="3.94737" fill="#A4BDBB"/>
<circle cx="3.94737" cy="388.053" r="3.94737" fill="#A4BDBB"/>
<circle cx="19.7369" cy="261.737" r="3.94737" fill="#A4BDBB"/>
<circle cx="19.7369" cy="277.526" r="3.94737" fill="#A4BDBB"/>
<circle cx="19.7369" cy="293.316" r="3.94737" fill="#A4BDBB"/>
<circle cx="19.7369" cy="309.105" r="3.94737" fill="#A4BDBB"/>
<circle cx="19.7369" cy="324.895" r="3.94737" fill="#A4BDBB"/>
<circle cx="19.7369" cy="340.684" r="3.94737" fill="#A4BDBB"/>
<circle cx="19.7369" cy="356.474" r="3.94737" fill="#A4BDBB"/>
<circle cx="19.7369" cy="372.263" r="3.94737" fill="#A4BDBB"/>
<circle cx="19.7369" cy="388.053" r="3.94737" fill="#A4BDBB"/>
<circle cx="35.5262" cy="277.526" r="3.94737" fill="#A4BDBB"/>
<circle cx="35.5262" cy="293.316" r="3.94737" fill="#A4BDBB"/>
<circle cx="35.5262" cy="309.105" r="3.94737" fill="#A4BDBB"/>
<circle cx="35.5262" cy="324.895" r="3.94737" fill="#A4BDBB"/>
<circle cx="35.5262" cy="340.684" r="3.94737" fill="#A4BDBB"/>
<circle cx="35.5262" cy="356.474" r="3.94737" fill="#A4BDBB"/>
<circle cx="35.5262" cy="372.263" r="3.94737" fill="#A4BDBB"/>
<circle cx="35.5262" cy="388.053" r="3.94737" fill="#A4BDBB"/>
<circle cx="51.3158" cy="293.316" r="3.94737" fill="#A4BDBB"/>
<circle cx="51.3158" cy="309.105" r="3.94737" fill="#A4BDBB"/>
<circle cx="51.3158" cy="324.895" r="3.94737" fill="#A4BDBB"/>
<circle cx="51.3158" cy="340.684" r="3.94737" fill="#A4BDBB"/>
<circle cx="51.3158" cy="356.474" r="3.94737" fill="#A4BDBB"/>
<circle cx="51.3158" cy="372.263" r="3.94737" fill="#A4BDBB"/>
<circle cx="51.3158" cy="388.053" r="3.94737" fill="#A4BDBB"/>
<circle cx="67.1053" cy="309.105" r="3.94737" fill="#A4BDBB"/>
<circle cx="67.1053" cy="324.895" r="3.94737" fill="#A4BDBB"/>
<circle cx="67.1053" cy="340.684" r="3.94737" fill="#A4BDBB"/>
<circle cx="67.1053" cy="356.474" r="3.94737" fill="#A4BDBB"/>
<circle cx="67.1053" cy="372.263" r="3.94737" fill="#A4BDBB"/>
<circle cx="67.1053" cy="388.053" r="3.94737" fill="#A4BDBB"/>
<circle cx="82.8946" cy="324.895" r="3.94737" fill="#A4BDBB"/>
<circle cx="82.8946" cy="340.684" r="3.94737" fill="#A4BDBB"/>
<circle cx="82.8946" cy="356.474" r="3.94737" fill="#A4BDBB"/>
<circle cx="82.8946" cy="372.263" r="3.94737" fill="#A4BDBB"/>
<circle cx="82.8946" cy="388.053" r="3.94737" fill="#A4BDBB"/>
<circle cx="98.6842" cy="340.684" r="3.94737" fill="#A4BDBB"/>
<circle cx="98.6842" cy="356.474" r="3.94737" fill="#A4BDBB"/>
<circle cx="98.6842" cy="372.263" r="3.94737" fill="#A4BDBB"/>
<circle cx="98.6842" cy="388.053" r="3.94737" fill="#A4BDBB"/>
<circle cx="114.474" cy="356.474" r="3.94737" fill="#A4BDBB"/>
<circle cx="114.474" cy="372.263" r="3.94737" fill="#A4BDBB"/>
<circle cx="114.474" cy="388.053" r="3.94737" fill="#A4BDBB"/>
<circle cx="130.263" cy="372.263" r="3.94737" fill="#A4BDBB"/>
<circle cx="130.263" cy="388.053" r="3.94737" fill="#A4BDBB"/>
<circle cx="146.053" cy="388.053" r="3.94737" fill="#A4BDBB"/>
<circle cx="530.053" cy="146.053" r="3.94737" transform="rotate(180 530.053 146.053)" fill="#A4BDBB"/>
<circle cx="530.053" cy="130.263" r="3.94737" transform="rotate(180 530.053 130.263)" fill="#A4BDBB"/>
<circle cx="530.053" cy="114.474" r="3.94737" transform="rotate(180 530.053 114.474)" fill="#A4BDBB"/>
<circle cx="530.053" cy="98.684" r="3.94737" transform="rotate(180 530.053 98.684)" fill="#A4BDBB"/>
<circle cx="530.053" cy="82.8949" r="3.94737" transform="rotate(180 530.053 82.8949)" fill="#A4BDBB"/>
<circle cx="530.053" cy="67.1054" r="3.94737" transform="rotate(180 530.053 67.1054)" fill="#A4BDBB"/>
<circle cx="530.053" cy="51.3158" r="3.94737" transform="rotate(180 530.053 51.3158)" fill="#A4BDBB"/>
<circle cx="530.053" cy="35.5263" r="3.94737" transform="rotate(180 530.053 35.5263)" fill="#A4BDBB"/>
<circle cx="530.053" cy="19.7367" r="3.94737" transform="rotate(180 530.053 19.7367)" fill="#A4BDBB"/>
<circle cx="530.053" cy="3.94716" r="3.94737" transform="rotate(180 530.053 3.94716)" fill="#A4BDBB"/>
<circle cx="514.263" cy="130.263" r="3.94737" transform="rotate(180 514.263 130.263)" fill="#A4BDBB"/>
<circle cx="514.263" cy="114.474" r="3.94737" transform="rotate(180 514.263 114.474)" fill="#A4BDBB"/>
<circle cx="514.263" cy="98.684" r="3.94737" transform="rotate(180 514.263 98.684)" fill="#A4BDBB"/>
<circle cx="514.263" cy="82.8949" r="3.94737" transform="rotate(180 514.263 82.8949)" fill="#A4BDBB"/>
<circle cx="514.263" cy="67.1054" r="3.94737" transform="rotate(180 514.263 67.1054)" fill="#A4BDBB"/>
<circle cx="514.263" cy="51.3158" r="3.94737" transform="rotate(180 514.263 51.3158)" fill="#A4BDBB"/>
<circle cx="514.263" cy="35.5263" r="3.94737" transform="rotate(180 514.263 35.5263)" fill="#A4BDBB"/>
<circle cx="514.263" cy="19.7367" r="3.94737" transform="rotate(180 514.263 19.7367)" fill="#A4BDBB"/>
<circle cx="514.263" cy="3.94716" r="3.94737" transform="rotate(180 514.263 3.94716)" fill="#A4BDBB"/>
<circle cx="498.474" cy="114.474" r="3.94737" transform="rotate(180 498.474 114.474)" fill="#A4BDBB"/>
<circle cx="498.474" cy="98.684" r="3.94737" transform="rotate(180 498.474 98.684)" fill="#A4BDBB"/>
<circle cx="498.474" cy="82.8949" r="3.94737" transform="rotate(180 498.474 82.8949)" fill="#A4BDBB"/>
<circle cx="498.474" cy="67.1054" r="3.94737" transform="rotate(180 498.474 67.1054)" fill="#A4BDBB"/>
<circle cx="498.474" cy="51.3158" r="3.94737" transform="rotate(180 498.474 51.3158)" fill="#A4BDBB"/>
<circle cx="498.474" cy="35.5263" r="3.94737" transform="rotate(180 498.474 35.5263)" fill="#A4BDBB"/>
<circle cx="498.474" cy="19.7367" r="3.94737" transform="rotate(180 498.474 19.7367)" fill="#A4BDBB"/>
<circle cx="498.474" cy="3.94716" r="3.94737" transform="rotate(180 498.474 3.94716)" fill="#A4BDBB"/>
<circle cx="482.684" cy="98.684" r="3.94737" transform="rotate(180 482.684 98.684)" fill="#A4BDBB"/>
<circle cx="482.684" cy="82.8949" r="3.94737" transform="rotate(180 482.684 82.8949)" fill="#A4BDBB"/>
<circle cx="482.684" cy="67.1054" r="3.94737" transform="rotate(180 482.684 67.1054)" fill="#A4BDBB"/>
<circle cx="482.684" cy="51.3158" r="3.94737" transform="rotate(180 482.684 51.3158)" fill="#A4BDBB"/>
<circle cx="482.684" cy="35.5263" r="3.94737" transform="rotate(180 482.684 35.5263)" fill="#A4BDBB"/>
<circle cx="482.684" cy="19.7367" r="3.94737" transform="rotate(180 482.684 19.7367)" fill="#A4BDBB"/>
<circle cx="482.684" cy="3.94716" r="3.94737" transform="rotate(180 482.684 3.94716)" fill="#A4BDBB"/>
<circle cx="466.895" cy="82.8949" r="3.94737" transform="rotate(180 466.895 82.8949)" fill="#A4BDBB"/>
<circle cx="466.895" cy="67.1054" r="3.94737" transform="rotate(180 466.895 67.1054)" fill="#A4BDBB"/>
<circle cx="466.895" cy="51.3158" r="3.94737" transform="rotate(180 466.895 51.3158)" fill="#A4BDBB"/>
<circle cx="466.895" cy="35.5263" r="3.94737" transform="rotate(180 466.895 35.5263)" fill="#A4BDBB"/>
<circle cx="466.895" cy="19.7367" r="3.94737" transform="rotate(180 466.895 19.7367)" fill="#A4BDBB"/>
<circle cx="466.895" cy="3.94716" r="3.94737" transform="rotate(180 466.895 3.94716)" fill="#A4BDBB"/>
<circle cx="451.105" cy="67.1054" r="3.94737" transform="rotate(180 451.105 67.1054)" fill="#A4BDBB"/>
<circle cx="451.105" cy="51.3158" r="3.94737" transform="rotate(180 451.105 51.3158)" fill="#A4BDBB"/>
<circle cx="451.105" cy="35.5263" r="3.94737" transform="rotate(180 451.105 35.5263)" fill="#A4BDBB"/>
<circle cx="451.105" cy="19.7367" r="3.94737" transform="rotate(180 451.105 19.7367)" fill="#A4BDBB"/>
<circle cx="451.105" cy="3.94716" r="3.94737" transform="rotate(180 451.105 3.94716)" fill="#A4BDBB"/>
<circle cx="435.316" cy="51.3158" r="3.94737" transform="rotate(180 435.316 51.3158)" fill="#A4BDBB"/>
<circle cx="435.316" cy="35.5263" r="3.94737" transform="rotate(180 435.316 35.5263)" fill="#A4BDBB"/>
<circle cx="435.316" cy="19.7367" r="3.94737" transform="rotate(180 435.316 19.7367)" fill="#A4BDBB"/>
<circle cx="435.316" cy="3.94716" r="3.94737" transform="rotate(180 435.316 3.94716)" fill="#A4BDBB"/>
<circle cx="419.526" cy="35.5263" r="3.94737" transform="rotate(180 419.526 35.5263)" fill="#A4BDBB"/>
<circle cx="419.526" cy="19.7367" r="3.94737" transform="rotate(180 419.526 19.7367)" fill="#A4BDBB"/>
<circle cx="419.526" cy="3.94716" r="3.94737" transform="rotate(180 419.526 3.94716)" fill="#A4BDBB"/>
<circle cx="403.737" cy="19.7367" r="3.94737" transform="rotate(180 403.737 19.7367)" fill="#A4BDBB"/>
<circle cx="403.737" cy="3.94716" r="3.94737" transform="rotate(180 403.737 3.94716)" fill="#A4BDBB"/>
<circle cx="387.947" cy="3.94716" r="3.94737" transform="rotate(180 387.947 3.94716)" fill="#A4BDBB"/>
<rect x="41" y="37" width="460" height="310" rx="10" fill="#F2F2F2"/>
<path d="M41 47C41 41.4772 45.4772 37 51 37H491C496.523 37 501 41.4772 501 47V127H41V47Z" fill="#0E1E25"/>
<path d="M501 337C501 342.523 496.523 347 491 347L51 347C45.4772 347 41 342.523 41 337V307L501 307V337Z" fill="#0E1E25"/>
<rect x="98.1006" y="61" width="14" height="14" transform="rotate(-45 98.1006 61)" fill="#00AEA0"/>
<rect x="127" y="59" width="47" height="4" fill="white" fill-opacity="0.9"/>
<circle cx="444" cy="62" r="7" fill="#D5D5D5"/>
<rect x="101" y="84" width="24" height="2" fill="white"/>
<rect x="139" y="84" width="24" height="2" fill="#767676"/>
<rect x="177" y="84" width="24" height="2" fill="#767676"/>
<rect x="215" y="84" width="24" height="2" fill="#767676"/>
<rect x="98" y="325" width="19" height="2" fill="white"/>
<rect x="126" y="325" width="18" height="2" fill="#767676"/>
<rect x="153" y="325" width="20" height="2" fill="#767676"/>
<rect x="182" y="325" width="18" height="2" fill="#767676"/>
<rect x="209" y="325" width="19" height="2" fill="#767676"/>
<g filter="url(#filter0_d)">
<rect x="92" y="102" width="360" height="186" rx="4" fill="white"/>
</g>
<rect x="105.5" y="112.5" width="129" height="11" stroke="#BDBDBD"/>
<rect x="121" y="117" width="34" height="2" fill="#DADADA"/>
<circle cx="113" cy="118" r="2" fill="#8C8C8C"/>
<rect x="365" y="112" width="70" height="12" fill="#00AEA0"/>
<rect x="380" y="117" width="41" height="2" fill="#F9F9F9"/>
<rect x="92" y="133" width="360" height="20" fill="white"/>
<rect x="92" y="153" width="360" height="20" fill="#F3F4F4"/>
<rect x="92" y="173" width="360" height="20" fill="white"/>
<rect x="92" y="193" width="360" height="20" fill="#F3F4F4"/>
<rect x="92" y="213" width="360" height="20" fill="white"/>
<rect x="104.5" y="238.5" width="336" height="40" stroke="#C3C3C3" stroke-dasharray="4 2"/>
<path d="M430.625 138L433.249 141.019L430.625 144.037" stroke="#C2C2C2" stroke-linecap="round"/>
<path d="M430.625 159L433.249 162.019L430.625 165.037" stroke="#C2C2C2" stroke-linecap="round"/>
<path d="M430.625 180L433.249 183.019L430.625 186.037" stroke="#C2C2C2" stroke-linecap="round"/>
<path d="M430.625 201L433.249 204.019L430.625 207.037" stroke="#C2C2C2" stroke-linecap="round"/>
<path d="M430.625 219L433.249 222.019L430.625 225.037" stroke="#C2C2C2" stroke-linecap="round"/>
<rect x="105" y="136" width="20" height="14" rx="2" fill="#C4C4C4"/>
<rect x="134" y="139" width="44" height="2" fill="#0E1E25" fill-opacity="0.8"/>
<rect x="134" y="144" width="24" height="2" fill="#E2E2E2"/>
<rect x="264" y="139" width="33" height="2" fill="#0E1E25" fill-opacity="0.8"/>
<rect x="264" y="144" width="46" height="2" fill="#E2E2E2"/>
<rect x="105" y="156" width="20" height="14" rx="2" fill="#C4C4C4"/>
<rect x="134" y="159" width="34" height="2" fill="#0E1E25" fill-opacity="0.8"/>
<rect x="134" y="164" width="24" height="2" fill="#E2E2E2"/>
<rect x="264" y="159" width="33" height="2" fill="#0E1E25" fill-opacity="0.8"/>
<rect x="264" y="164" width="46" height="2" fill="#E2E2E2"/>
<rect x="105" y="176" width="20" height="14" rx="2" fill="#C4C4C4"/>
<rect x="134" y="179" width="55" height="2" fill="#0E1E25" fill-opacity="0.8"/>
<rect x="134" y="184" width="24" height="2" fill="#E2E2E2"/>
<rect x="264" y="179" width="33" height="2" fill="#0E1E25" fill-opacity="0.8"/>
<rect x="264" y="184" width="46" height="2" fill="#E2E2E2"/>
<rect x="105" y="196" width="20" height="14" rx="2" fill="#C4C4C4"/>
<rect x="134" y="199" width="21" height="2" fill="#0E1E25" fill-opacity="0.8"/>
<rect x="134" y="204" width="24" height="2" fill="#E2E2E2"/>
<rect x="264" y="199" width="33" height="2" fill="#0E1E25" fill-opacity="0.8"/>
<rect x="264" y="204" width="46" height="2" fill="#E2E2E2"/>
<rect x="105" y="216" width="20" height="14" rx="2" fill="#C4C4C4"/>
<rect x="134" y="219" width="39" height="2" fill="#0E1E25" fill-opacity="0.8"/>
<rect x="134" y="224" width="24" height="2" fill="#E2E2E2"/>
<rect x="264" y="219" width="33" height="2" fill="#0E1E25" fill-opacity="0.8"/>
<rect x="264" y="224" width="46" height="2" fill="#E2E2E2"/>
<rect x="235" y="252" width="90" height="4" fill="#E2E2E2"/>
<rect x="250" y="261" width="60" height="4" fill="#E2E2E2"/>
<defs>
<filter id="filter0_d" x="88" y="100" width="368" height="194" filterUnits="userSpaceOnUse" color-interpolation-filters="sRGB">
<feFlood flood-opacity="0" result="BackgroundImageFix"/>
<feColorMatrix in="SourceAlpha" type="matrix" values="0 0 0 0 0 0 0 0 0 0 0 0 0 0 0 0 0 0 127 0"/>
<feOffset dy="2"/>
<feGaussianBlur stdDeviation="2"/>
<feColorMatrix type="matrix" values="0 0 0 0 0.054902 0 0 0 0 0.117647 0 0 0 0 0.145098 0 0 0 0.2 0"/>
<feBlend mode="normal" in2="BackgroundImageFix" result="effect1_dropShadow"/>
<feBlend mode="normal" in="SourceGraphic" in2="effect1_dropShadow" result="shape"/>
</filter>
</defs>
</svg>