<svg width="16" height="16" viewBox="0 0 16 16" version="1.1" xmlns="http://www.w3.org/2000/svg" xmlns:xlink="http://www.w3.org/1999/xlink">
<title>Arrow</title>
<desc>Created using Figma</desc>
<g id="Canvas" transform="translate(305 490)">
<g id="Arrow">
<use xlink:href="#path0_stroke" transform="matrix(1 -2.43068e-09 2.4077e-09 1 -305 -482)" fill="#FFFFFF"/>
</g>
</g>
<defs>
<path id="path0_stroke" d="M 15.636 0.707107C 16.0266 0.316582 16.0266 -0.316582 15.636 -0.707107L 9.27207 -7.07107C 8.88155 -7.46159 8.24838 -7.46159 7.85786 -7.07107C 7.46733 -6.68054 7.46733 -6.04738 7.85786 -5.65685L 13.5147 0L 7.85786 5.65685C 7.46733 6.04738 7.46733 6.68054 7.85786 7.07107C 8.24838 7.46159 8.88155 7.46159 9.27207 7.07107L 15.636 0.707107ZM 0 1L 14.9289 1L 14.9289 -1L 0 -1L 0 1Z"/>
</defs>
</svg>
