<svg width="153" height="153" viewBox="0 0 153 153" fill="none" xmlns="http://www.w3.org/2000/svg">
<circle cx="76.5" cy="76.5" r="76.5" fill="#48CFAD"/>
<mask id="mask0" mask-type="alpha" maskUnits="userSpaceOnUse" x="0" y="0" width="153" height="153">
<circle cx="76.5" cy="76.5" r="76.5" fill="#48CFAD"/>
</mask>
<g mask="url(#mask0)">
<rect width="106.313" height="77.7493" transform="translate(96.6629 42.7283) rotate(41.2421)" fill="black" fill-opacity="0.16"/>
</g>
<circle cx="41" cy="41" r="41" transform="translate(36 35)" fill="#FFB11A"/>
<path d="M26.8943 20.8287C29.3364 19.6031 30.8645 17.4445 30.5075 13.8484C30.0268 8.93395 25.7197 7.28603 20.2824 6.81673L20.2814 -1.72566e-08H16.0686L16.0674 6.63746C14.959 6.63746 13.829 6.65891 12.7042 6.68114L12.7033 0.000904722L8.49431 0.000517003L8.49352 6.81556C7.58133 6.83392 6.68552 6.85136 5.81082 6.85136V6.8312L-5.60038e-08 6.82887L0.000786498 11.2598C0.000786498 11.2598 3.11186 11.2021 3.06061 11.2581C4.76637 11.2593 5.32333 12.2351 5.48351 13.0774L5.48482 20.8431V31.7513C5.40971 32.28 5.09368 33.1246 3.90097 33.1261C3.95524 33.1732 0.836428 33.1256 0.836428 33.1256L0.000786498 38.0804H5.4822C6.50358 38.0816 7.50714 38.0972 8.49169 38.105L8.49536 44.9988L12.7033 45L12.7021 38.1784C13.8598 38.2016 14.9773 38.2117 16.0688 38.2103L16.0676 45H20.2803L20.2827 38.1176C27.3639 37.7169 32.3214 35.9595 32.9378 29.4082C33.4346 24.1336 30.9147 21.7792 26.8943 20.8287ZM12.8049 11.5589C15.1809 11.5589 22.6533 10.8135 22.6543 15.7031C22.6533 20.3909 15.1832 19.8432 12.8049 19.8432V11.5589V11.5589ZM12.8031 33.1597L12.8049 24.0255C15.6596 24.0247 24.6133 23.2162 24.6145 28.5905C24.6157 33.7445 15.6596 33.1577 12.8031 33.1597Z" transform="translate(62 52)" fill="white"/>
</svg>
