<svg width="128" height="128" viewBox="0 0 128 128" fill="none" xmlns="http://www.w3.org/2000/svg">
<path d="M105.72 54.9L73.14 39.42L71.31 38.52L70.19 40.8L64 53.41V68.3L73.15 50.22L94.65 59.79L71.56 70.16L70.69 70.63V72.19V78.37V81.51L73 80.38L105.78 64.69C106.112 64.4832 106.376 64.1835 106.54 63.828C106.703 63.4725 106.759 63.0768 106.7 62.69V56.91C106.755 56.5155 106.692 56.1134 106.517 55.7553C106.343 55.3971 106.065 55.0993 105.72 54.9V54.9Z" fill="black"/>
<path d="M56 69.39L34.21 59.79L57.51 49.42L59.2701 48.72V47.39V37.76L55.87 39.2L21.94 54.89C21.5621 55.0718 21.2423 55.3551 21.0162 55.7084C20.7902 56.0616 20.6668 56.4707 20.66 56.89V62.66C20.6585 63.0761 20.774 63.4842 20.9933 63.8378C21.2125 64.1914 21.5267 64.4763 21.9 64.66L55.34 80.18L57.34 81.08L58.55 78.82L64 68.3V53.41L56 69.39Z" fill="black"/>
</svg>
