<svg width="50" height="50" viewBox="0 0 50 50" fill="none" xmlns="http://www.w3.org/2000/svg">
<path d="M43.2622 0H6.73765C3.01662 0 0 3.01648 0 6.7376V43.2622C0 46.9833 3.0165 49.9998 6.73765 49.9998H24.7514L24.7821 32.1325H20.1402C19.5369 32.1325 19.0473 31.6448 19.045 31.0415L19.0227 25.2822C19.0204 24.6756 19.5115 24.1827 20.118 24.1827H24.7515V18.6177C24.7515 12.1596 28.6958 8.64311 34.4569 8.64311H39.1843C39.7891 8.64311 40.2796 9.13346 40.2796 9.73842V14.5947C40.2796 15.1994 39.7895 15.6897 39.1849 15.69L36.2837 15.6914C33.1507 15.6914 32.544 17.1802 32.544 19.3651V24.1828H39.4284C40.0844 24.1828 40.5933 24.7556 40.516 25.4071L39.8334 31.1664C39.7681 31.7175 39.3007 32.1328 38.7458 32.1328H32.5747L32.544 50H43.2625C46.9835 50 50 46.9835 50 43.2625V6.7376C49.9999 3.01648 46.9834 0 43.2622 0Z" fill="white"/>
</svg>
