<svg width="1000" height="1000" viewBox="0 0 1000 1000" fill="none" xmlns="http://www.w3.org/2000/svg">
<path d="M527.05 12.8201C513.34 16.5601 502.12 23.4101 495.27 32.7601C492.36 36.5001 446.04 133.72 392.23 248.8L294.19 458.2L298.55 547.94C300.84 597.38 303.33 640.8 303.95 644.54C306.24 659.29 322.65 669.47 335.94 664.48C341.96 662.2 484.47 554.59 489.87 548.36C491.74 546.07 536.82 450.93 590.41 336.68C686.38 132.06 687.84 128.74 688.67 113.99C689.5 100.49 688.88 97.5801 683.06 85.1101C660.63 37.3301 578.16 -0.889893 527.05 12.8201ZM578.37 64.5501C608.28 73.9001 639.24 97.3701 639.24 110.25C639.24 114.61 636.75 122.09 634.05 125.41C633.84 125.62 615.56 117.31 593.54 107.13C571.52 96.7401 552.62 89.0601 551.79 89.8901C549.7 92.1701 373.33 468.38 373.33 470.87C373.33 471.91 375.41 472.74 377.9 472.74C380.39 472.74 388.29 473.78 395.35 475.03C407.61 477.11 409.68 478.56 430.25 496.01C442.3 506.4 451.65 515.54 451.23 516.37C450.81 516.99 430.25 532.99 405.53 551.69C364.4 582.85 360.45 585.34 355.88 583.27C349.86 580.57 349.44 578.08 346.32 513.68L344.24 468.39L438.76 266.47C490.7 155.53 534.95 63.3001 536.82 61.8501C542.43 57.9001 560.91 58.9401 578.37 64.5501Z" fill="#404953"/>
<path d="M290.24 109.21C194.68 110.25 182.01 110.87 171.83 114.2C140.46 124.38 112.21 148.06 98.7099 175.69C83.7499 206.43 84.3799 186.28 84.9999 556.87L85.6199 889.24L91.4399 905.44C105.98 946.99 136.73 975.03 179.31 985.83C194.89 989.78 203.61 989.98 524.35 989.98C884.56 989.98 863.99 990.6 870.64 977.72C874.59 970.45 875 960.27 871.68 954.04C870.23 951.55 863.78 943.65 856.93 936.38C836.99 914.78 828.26 892.96 828.26 864.09C828.26 834.38 837.61 812.57 861.08 787.85L872.92 775.59L873.54 665.91L874.16 556.23L888.49 555.4C900.95 554.78 903.86 553.74 908.85 548.96L914.46 543.35L915.08 454.44C915.5 395.44 915.08 363.24 913.42 358.05C910.1 346.21 900.96 339.77 887.25 339.77H876.03V234.86C876.03 119.57 876.03 118.74 863.77 112.51C858.58 109.6 847.78 109.19 795.43 109.19H733.53L731.04 124.15C729.58 132.46 726.68 143.26 724.39 148.04L720.44 156.97H774.24H828.25V248.37V339.77H768.84C713.58 339.77 708.8 339.98 702.78 343.72C693.85 349.33 646.49 439.07 646.9 449.87C647.11 459.63 693.85 548.13 701.53 553.32C706.1 556.44 713.99 556.85 766.55 557.48L826.17 558.1V649.5V740.69H526.02H225.84V448.85V156.99H307.06H388.08L399.51 133.31C405.74 120.22 410.73 109.01 410.73 108.38C410.73 107.76 407.61 107.34 404.08 107.55C400.34 107.75 349.03 108.59 290.24 109.21ZM192.19 218.68L191.57 276.01L178.07 278.71C160 282.45 148.16 287.23 140.47 293.67L134.03 298.86L134.86 256.48C135.48 214.93 135.69 213.9 141.51 202.05C148.37 187.72 163.53 171.93 176.2 165.7C193.64 156.99 192.81 153.66 192.19 218.68ZM192.61 451.76V592.6L184.3 594.06C171.01 596.14 153.76 603.41 143.79 611.09L134.44 618.15V485.41V352.88L140.46 344.36C149.19 332.52 158.95 325.25 176.4 317.56C184.71 313.82 191.77 310.71 192.19 310.71C192.4 310.71 192.61 374.07 192.61 451.76ZM867.74 447.81V505.98H798.77H729.6L714.43 476.9L699.27 447.82L714.43 418.74L729.59 389.66H798.76H867.73V447.81H867.74ZM192.61 684.42V742.17L182.85 743.62C172.46 744.87 151.07 754.21 140.47 761.69L134.45 765.84V718.48C134.45 666.55 134.66 665.92 148.78 650.55C152.73 646.19 186.17 627.7 192.2 626.45C192.4 626.46 192.61 652.43 192.61 684.42ZM797.11 789.53C797.11 789.95 795.45 793.68 793.58 797.84L790.05 805.11H495.9C165.4 805.11 187.83 804.07 170.8 820.48C160.21 830.45 158.96 836.68 165.81 845.41C171.63 852.68 180.56 852.47 192.4 844.58L201.54 838.35H490.5H779.46V864.94C779.46 892.57 783.41 911.06 793.17 930.38L797.33 938.07L492.38 937.65L187.43 937.03L173.51 930.18C133.21 910.45 120.33 860.17 145.88 822.78C157.72 805.54 175.59 794.11 196.57 790.58C206.52 788.91 797.11 787.87 797.11 789.53Z" fill="#404953"/>
<path d="M765.12 421.43C749.75 430.16 744.35 452.18 754.11 466.72C760.76 476.9 775.92 483.96 786.93 482.09C798.77 480.01 810.41 469.21 813.52 457.58C820.58 428.91 790.87 406.68 765.12 421.43Z" fill="#404953"/>
</svg>
