<svg width="153" height="153" viewBox="0 0 153 153" fill="none" xmlns="http://www.w3.org/2000/svg">
<circle cx="76.5" cy="76.5" r="76.5" fill="#48CFAD"/>
<mask id="mask0" mask-type="alpha" maskUnits="userSpaceOnUse" x="0" y="0" width="153" height="153">
<circle cx="76.5" cy="76.5" r="76.5" fill="#48CFAD"/>
</mask>
<g mask="url(#mask0)">
<path d="M0 0H84.7533V78.5907H0L0 0Z" transform="translate(101.81 47) rotate(41.2421)" fill="black" fill-opacity="0.16"/>
</g>
<path d="M41 81C63.6437 81 82 62.8675 82 40.5C82 18.1325 63.6437 0 41 0C18.3563 0 0 18.1325 0 40.5C0 62.8675 18.3563 81 41 81Z" transform="translate(36 36)" fill="white"/>
<circle cx="10" cy="10" r="10" transform="translate(92 62)" fill="#4F5A69"/>
<circle cx="10" cy="10" r="10" transform="translate(84 86)" fill="#4F5A69"/>
<circle cx="10" cy="10" r="10" transform="translate(58 91)" fill="#4F5A69"/>
<circle cx="10" cy="10" r="10" transform="translate(42 71)" fill="#4F5A69"/>
<circle cx="10" cy="10" r="10" transform="translate(50 47)" fill="#4F5A69"/>
<circle cx="10" cy="10" r="10" transform="translate(75 43)" fill="#4F5A69"/>
<circle cx="10" cy="10" r="10" transform="translate(67 66)" fill="#3D3D3D"/>
<circle cx="6" cy="6" r="6" transform="translate(71 70)" fill="#E3E3E3"/>
</svg>
