<svg width="153" height="153" viewBox="0 0 153 153" fill="none" xmlns="http://www.w3.org/2000/svg">
<circle cx="76.5" cy="76.5" r="76.5" fill="#48CFAD"/>
<mask id="mask0" mask-type="alpha" maskUnits="userSpaceOnUse" x="0" y="0" width="153" height="153">
<circle cx="76.5" cy="76.5" r="76.5" fill="#48CFAD"/>
</mask>
<g mask="url(#mask0)">
<path d="M0 0H84.7533V78.5907H0L0 0Z" transform="translate(101.81 47) rotate(41.2421)" fill="black" fill-opacity="0.16"/>
</g>
<path d="M41 81C63.6437 81 82 62.8675 82 40.5C82 18.1325 63.6437 0 41 0C18.3563 0 0 18.1325 0 40.5C0 62.8675 18.3563 81 41 81Z" transform="translate(36 36)" fill="#4F5A69"/>
<path d="M18.7358 37.0145C29.0832 37.0145 37.4715 28.7286 37.4715 18.5073C37.4715 8.28599 29.0832 0 18.7358 0C8.38828 0 0 8.28599 0 18.5073C0 28.7286 8.38828 37.0145 18.7358 37.0145Z" transform="translate(52.8472 52.6418)" fill="white"/>
<path d="M2.68364 2.65091C1.83879 3.48545 0.944242 4.22182 0 4.81091L13.0703 17.7218C14.4121 19.0473 16.5988 19.0473 17.9406 17.7218C19.2824 16.3964 19.2824 14.2364 17.9406 12.9109L4.8703 1.49814e-06C4.27394 0.932729 3.52849 1.81636 2.68364 2.65091Z" transform="translate(82.1686 81.6055)" fill="#FFD345"/>
<path d="M4.8703 1.49814e-06C4.22424 0.932729 3.47879 1.81636 2.68364 2.65091C1.83879 3.48545 0.944242 4.22182 -7.58316e-07 4.81091L2.83273 7.60909C3.72727 6.92182 4.62182 6.18546 5.46667 5.4C6.31151 4.56546 7.05697 3.73091 7.70303 2.79818L4.8703 1.49814e-06Z" transform="translate(82.2181 81.6055)" fill="#E6B73F"/>
<path d="M13.617 26.9018C21.1374 26.9018 27.2339 20.8796 27.2339 13.4509C27.2339 6.02218 21.1374 0 13.617 0C6.09652 0 0 6.02218 0 13.4509C0 20.8796 6.09652 26.9018 13.617 26.9018Z" transform="translate(57.9661 57.6981)" fill="#4EC6E1"/>
<path d="M19.6303 38.7818C14.3624 38.7818 9.44242 36.7691 5.76485 33.0873C2.03758 29.4055 3.79158e-07 24.5455 3.79158e-07 19.3909C3.79158e-07 14.1873 2.03758 9.32727 5.76485 5.69454C9.49212 2.01273 14.4121 0 19.6303 0C24.8982 0 29.8182 2.01273 33.4958 5.69454C41.1491 13.2545 41.1491 25.5764 33.4958 33.1364C29.8182 36.7691 24.8982 38.7818 19.6303 38.7818ZM19.6303 1.76727C14.8594 1.76727 10.3867 3.58364 7.00727 6.92182C3.62788 10.26 1.78909 14.6782 1.78909 19.3909C1.78909 24.1036 3.62788 28.5218 7.00727 31.86C10.3867 35.1982 14.8594 37.0145 19.6303 37.0145C24.4012 37.0145 28.8739 35.1982 32.2533 31.86C39.2109 24.9873 39.2109 13.7945 32.2533 6.92182C28.9236 3.58364 24.4012 1.76727 19.6303 1.76727Z" transform="translate(51.9527 51.7582)" fill="#1E2353"/>
<path d="M14.5115 28.7182C10.6351 28.7182 7.00727 27.2455 4.22424 24.4964C1.44121 21.7473 0 18.2127 0 14.3836C0 10.5545 1.49091 6.97091 4.27394 4.22182C7.00727 1.52182 10.6848 -1.49814e-06 14.5612 -1.49814e-06C18.4376 -1.49814e-06 22.0655 1.47273 24.8485 4.22182C30.5139 9.81818 30.5139 18.9 24.8485 24.4964C22.0655 27.2455 18.3879 28.7182 14.5115 28.7182ZM14.5115 1.81636C11.0824 1.81636 7.90182 3.14182 5.51636 5.49818C3.13091 7.85455 1.78909 11.0455 1.78909 14.3836C1.78909 17.7218 3.13091 20.9127 5.51636 23.2691C7.90182 25.6255 11.1321 26.9509 14.5115 26.9509C17.9406 26.9509 21.1212 25.6255 23.5067 23.2691C28.4764 18.36 28.4764 10.3582 23.5067 5.44909C21.1212 3.09273 17.9406 1.81636 14.5115 1.81636Z" transform="translate(57.0715 56.7654)" fill="#1E2353"/>
<path d="M16.4127 20.4834C15.2696 20.4834 14.1763 20.0416 13.3315 19.2071L0.261151 6.29614C0.062363 6.09978 -0.037031 5.85433 0.012666 5.60887C0.012666 5.36342 0.161755 5.11796 0.410239 4.97069C1.30478 4.33251 2.19933 3.64524 2.94478 2.90887C3.69024 2.17251 4.4357 1.28887 5.03206 0.405234C5.18115 0.208871 5.42963 0.0616039 5.67812 0.012513C5.9266 -0.0365779 6.22478 0.0616039 6.37388 0.257968L19.4442 13.1689C21.1339 14.838 21.1339 17.538 19.4442 19.2071C18.649 20.0416 17.5557 20.4834 16.4127 20.4834ZM2.24903 5.75615L14.6236 17.9798C15.1205 18.4707 15.7666 18.7161 16.4127 18.7161C17.1084 18.7161 17.7545 18.4707 18.2018 17.9798C19.1957 16.998 19.1957 15.378 18.2018 14.3961L5.87691 2.17251C5.33024 2.85978 4.78357 3.49796 4.18721 4.08705C3.59084 4.67614 2.94479 5.26524 2.24903 5.75615Z" transform="translate(81.3109 80.7584)" fill="#1E2353"/>
</svg>
