<svg width="56" height="46" viewBox="0 0 56 46" fill="none" xmlns="http://www.w3.org/2000/svg">
<path d="M17.6113 46C38.7445 46 50.3014 28.3044 50.3014 12.9592C50.3014 12.4566 50.2913 11.9563 50.269 11.4582C52.5122 9.81903 54.4621 7.7735 56 5.44492C53.9414 6.36978 51.726 6.99238 49.4021 7.27312C51.7741 5.83545 53.5953 3.56125 54.4543 0.850143C52.2345 2.18026 49.7762 3.14701 47.1587 3.66895C45.0621 1.41178 42.0772 0 38.7722 0C32.4273 0 27.2822 5.20056 27.2822 11.611C27.2822 12.5223 27.383 13.4086 27.5801 14.2589C18.0312 13.7732 9.56375 9.15231 3.89694 2.12592C2.91023 3.84204 2.34126 5.83552 2.34126 7.96257C2.34126 11.9914 4.36964 15.5481 7.4541 17.6288C5.56912 17.57 3.79837 17.047 2.25069 16.1765C2.249 16.2252 2.24899 16.2726 2.24899 16.3247C2.24899 21.9486 6.20934 26.6442 11.4665 27.7082C10.5011 27.9742 9.4853 28.1169 8.43692 28.1169C7.69772 28.1169 6.97755 28.0433 6.27755 27.9075C7.74026 32.5214 11.9818 35.8791 17.0104 35.973C13.0781 39.0882 8.12441 40.9437 2.74059 40.9437C1.81435 40.9437 0.899314 40.8904 0 40.7829C5.08485 44.0772 11.1226 45.9993 17.612 45.9993" fill="white"/>
</svg>
